<?xml version="1.0" encoding="utf-8"?>
<!-- Generator: Adobe Illustrator 19.0.0, SVG Export Plug-In . SVG Version: 6.00 Build 0)  -->
<svg version="1.1" id="Layer_1" xmlns="http://www.w3.org/2000/svg" xmlns:xlink="http://www.w3.org/1999/xlink" x="0px" y="0px"
	 viewBox="0 0 400 100" style="enable-background:new 0 0 400 100;" xml:space="preserve">
<style type="text/css">
	.st0{fill:#FFFFFF;}
</style>
<g id="XMLID_3_">
	<path id="XMLID_15_" class="st0" d="M142.6,93c5.9-6.2,17-5,24.8-5.3l0,0c2.2-6.2,6.8-12.1,13.3-13.6c5-1.2,12.7-0.9,13.9,5.3
		c0,0-0.5-15.8,15.4-15.8c15.9,0,12.5,17.3,12.5,17.3c7.7-5.9,16.7-6.5,22.6,2.2c1.5,2.2,0.6,3.1,3.1,3.7c1.2,0.6,4.6-0.3,6.5,0
		c4,0.6,11.8,6.2,11.8,6.2H142.6z"/>
</g>
<g id="XMLID_2_">
	<path id="XMLID_16_" class="st0" d="M112.3,73c-10-7.2-17.1-13.2-29.9-9.6C80.8,48.6,66,49,56.1,58.2c5.2-22-25.5-33.5-41.1-21.6
		C-4.2,51,7.8,66.5,17.3,68.6c-4.8,0-8.7,2.3-8.6,4.4C44.7,73,112.3,73,112.3,73z"/>
</g>
<path id="XMLID_1_" class="st0" d="M390.1,53c0-0.3,0-0.5,0-0.8c0-5.4-4.4-9.8-9.8-9.8c-0.2,0-0.4,0-0.5,0
	c-2.2-5.1-7.3-8.7-13.2-8.7c-0.3,0-0.6,0-0.9,0c-2.7-9.3-11.2-16.1-21.3-16.1c-10.5,0-19.3,7.3-21.6,17.1c-5.3,1.7-9.3,6.4-9.7,12.2
	c-1.1-0.3-2.3-0.5-3.6-0.5c-4.8,0-9,2.7-11.1,6.6H390.1z"/>
</svg>
