<?xml version="1.0" encoding="utf-8"?>
<!-- Generator: Adobe Illustrator 19.0.0, SVG Export Plug-In . SVG Version: 6.00 Build 0)  -->
<svg version="1.1" id="Layer_1" xmlns="http://www.w3.org/2000/svg" xmlns:xlink="http://www.w3.org/1999/xlink" x="0px" y="0px"
	 viewBox="0 0 400 100" style="enable-background:new 0 0 400 100;" xml:space="preserve">
<style type="text/css">
	.st0{fill:#FFFFFF;}
</style>
<path id="path4061" inkscape:connector-curvature="0" sodipodi:nodetypes="ccccccc" class="st0" d="M27,17.4
	C9.6,5,66.3-1.3,68.6,13.5c21.5,1.1,39.1,4.6,34.1,21.9c1.6,4.2-1.6,7.8-8.1,10.9C87.4,60.8,43.1,62,40.6,44.3
	C10.7,47.7-6.2,34.4,16,25.1C14.6,21.1,20.1,18.9,27,17.4z"/>
<path id="path4123" inkscape:connector-curvature="0" sodipodi:nodetypes="cccc" class="st0" d="M106.9,70.5c7-12.2,42.3-11,45,8.7
	c26.7,8.7-8.6,17.7-42.3,12.1C91,90.5,90.2,77.2,106.9,70.5z"/>
<path id="path4081" inkscape:connector-curvature="0" sodipodi:nodetypes="cccccccc" class="st0" d="M175.2,21.9
	C140,24.8,138.9,40.2,160.8,47c-1.3,11.6,20,15.3,38.1,12.6c10.2,4.9,20.1,3,29.9-0.5c30.9,8.2,61.5-10,25.1-19.2
	c0.5-5.7-2-7.8-4.9-9.5c14.2-12.2-4-20.4-28.8-16.6C199.8,7.5,184.7,10,175.2,21.9L175.2,21.9z"/>
<path id="path3959" inkscape:connector-curvature="0" sodipodi:nodetypes="cccccc" class="st0" d="M15.4,77.8
	c-21.1,2.7-12.1,9.8,8.4,9.3c5.9,7.2,29.6,4.5,25.1-3.1c10.5-2.3,12.5-10.5-7.5-9.5c-4.3-2.3-9-2.6-14-1.3
	C20.6,72.6,17.6,74.8,15.4,77.8L15.4,77.8z"/>
<path id="path4143" inkscape:connector-curvature="0" sodipodi:nodetypes="cccccc" class="st0" d="M293.5,63.9
	c-5.8,1-8.7,4.2-7.7,8.1c-41.7,9.9-7.8,29.1,32,21c16.9,3.5,50,3,36.3-9.4c5.4-7.6-2.3-11.7-11.4-15.5
	C390.2,50.5,278.8,40.1,293.5,63.9z"/>
<path id="path3959_1_" inkscape:connector-curvature="0" sodipodi:nodetypes="cccccc" class="st0" d="M307.1,15.9
	c-43.6,5.5-24.9,20.3,17.4,19.1c12.2,14.9,61,9.3,51.7-6.3c21.7-4.8,25.8-21.7-15.4-19.6c-8.8-4.7-18.5-5.3-28.9-2.6
	C317.9,5.1,311.6,9.8,307.1,15.9L307.1,15.9z"/>
</svg>
