<svg id="Layer_1" xmlns="http://www.w3.org/2000/svg" viewBox="0 0 100 100"><style>.st0{fill:#f5a46e}.st1{fill:#9f410d}.st2{fill:#fff}.st3{fill:#961b1e}.st4{fill:#c5c7c9}.st5{fill:#834347}.st6{fill:#c6e9fa}.st7{fill:#808184}.st8{fill:#dbdcdd}</style><g id="XMLID_44_"><path id="XMLID_42_" class="st0" d="M32.6 6.3h30.7v78.9H32.6z"/><path id="XMLID_41_" class="st1" d="M31.5 4.8h32.7v1.6H31.5z"/><path id="XMLID_40_" class="st2" d="M36.7 63h10.1v16.3H36.7z"/><path id="XMLID_39_" class="st3" d="M45.7 64.1v15.1h-7.8V64.1h7.8z"/><path id="XMLID_38_" class="st4" d="M44.3 70.1h.6v3h-.6z"/><path id="XMLID_37_" class="st5" d="M49.5 63.3h11.1v11.1H49.5z"/><path id="XMLID_83_" class="st6" d="M50.4 73.5h4.2v-4.2h-4.2v4.2zm0-5.2h4.2v-4.2h-4.2v4.2zm5.2 5.2h4.2v-4.2h-4.2v4.2zm0-9.3v4.2h4.1v-4.2h-4.1z"/><path id="XMLID_32_" class="st5" d="M49.5 45.2h11.1v11.1H49.5z"/><path id="XMLID_77_" class="st6" d="M50.4 50.2h4.2V46h-4.2v4.2zm0 5.2h4.2v-4.2h-4.2v4.2zm5.2 0h4.2v-4.2h-4.2v4.2zm0-9.3v4.2h4.1v-4.2h-4.1z"/><path id="XMLID_27_" class="st5" d="M35.2 45.2h11.1v11.1H35.2z"/><path id="XMLID_71_" class="st6" d="M36.1 55.4h4.2v-4.2h-4.2v4.2zm0-5.2h4.2V46h-4.2v4.2zm5.2 5.2h4.2v-4.2h-4.2v4.2zm0-9.3v4.2h4.1v-4.2h-4.1z"/><path id="XMLID_22_" class="st5" d="M49.5 9h11.1v11.1H49.5z"/><path id="XMLID_65_" class="st6" d="M50.4 19.3h4.2v-4.2h-4.2v4.2zm0-5.2h4.2V9.9h-4.2v4.2zm5.2 5.2h4.2v-4.2h-4.2v4.2zm0-9.4v4.2h4.1V9.9h-4.1z"/><path id="XMLID_17_" class="st5" d="M35.2 9h11.1v11.1H35.2z"/><path id="XMLID_59_" class="st6" d="M36.1 14.1h4.2V9.9h-4.2v4.2zm0 5.2h4.2v-4.2h-4.2v4.2zm5.2-9.4v4.2h4.1V9.9h-4.1zm0 9.4h4.2v-4.2h-4.2v4.2z"/><path id="XMLID_12_" class="st5" d="M49.5 27.1h11.1v11.1H49.5z"/><path id="XMLID_53_" class="st6" d="M50.4 32.2h4.2V28h-4.2v4.2zm0 5.2h4.2v-4.2h-4.2v4.2zm5.2 0h4.2v-4.2h-4.2v4.2zm0-9.4v4.2h4.1V28h-4.1z"/><path id="XMLID_7_" class="st5" d="M35.2 27.1h11.1v11.1H35.2z"/><path id="XMLID_47_" class="st6" d="M36.1 37.4h4.2v-4.2h-4.2v4.2zm0-5.2h4.2V28h-4.2v4.2zm5.2 5.2h4.2v-4.2h-4.2v4.2zm0-9.4v4.2h4.1V28h-4.1z"/><path id="XMLID_2_" class="st7" d="M31.4 80.4h33v9.1h-33z"/><path id="XMLID_1_" class="st8" d="M54.2 87.7V86h-1.7v-1.7h-1.7v-1.7h-1.7v-1.7h-1.7v-1.7H36.2v10.3h19.7v-1.7z"/></g></svg>