<svg id="Layer_1" xmlns="http://www.w3.org/2000/svg" viewBox="0 0 100 100"><style>.st0{fill:#d8e1e7}.st1{fill:#8a8c8f}.st2{fill:#fff}.st3{fill:#1e5785}.st4{fill:#dbdcdd}.st5{fill:#c5c7c9}.st6{fill:#929497}.st7{fill:#c6e9fa}.st8{fill:#a0a2a4}.st9{fill:#bbbdbf}</style><g id="XMLID_60_"><path id="XMLID_58_" class="st0" d="M75.4 36.1l-25-23.2L24 36.1v58.8h51.4z"/><path id="XMLID_57_" class="st1" d="M22.4 94.9h54.5v3.4H22.4z"/><path id="XMLID_56_" class="st2" d="M25.5 77.3h16.7v17.6H25.5z"/><path id="XMLID_55_" class="st3" d="M41 78.6v16.3H26.6V78.6H41z"/><path id="XMLID_54_" class="st4" d="M24.6 94.9H43v1.7H24.6z"/><path id="XMLID_53_" class="st5" d="M23 96.6h21.5v1.7H23z"/><path id="XMLID_52_" class="st5" d="M32.4 85.8h.5v3h-.5z"/><path id="XMLID_51_" class="st5" d="M34.6 85.8h.5v3h-.5z"/><path id="XMLID_50_" class="st6" d="M27.8 39.7H39v11.2H27.8z"/><path id="XMLID_115_" class="st7" d="M38.1 40.6H34v4.2h4.2v-4.2zm-9.3 0v4.2H33v-4.2h-4.2zm9.3 5.2H34V50h4.2v-4.2zm-5.2 0h-4.2V50h4.2v-4.2z"/><path id="XMLID_45_" class="st6" d="M44.3 39.7h11.2v11.2H44.3z"/><path id="XMLID_109_" class="st7" d="M54.6 40.6h-4.2v4.2h4.2v-4.2zm-9.4 0v4.2h4.2v-4.2h-4.2zm9.4 5.2h-4.2V50h4.2v-4.2zm-5.3 0h-4.2V50h4.2v-4.2z"/><path id="XMLID_40_" class="st6" d="M60.7 39.7h11.2v11.2H60.7z"/><path id="XMLID_103_" class="st7" d="M61.6 50h4.2v-4.2h-4.2V50zm0-5.2h4.2v-4.2h-4.2v4.2zm5.2 5.2H71v-4.2h-4.2V50zm0-9.4v4.2H71v-4.2h-4.2z"/><path id="XMLID_35_" class="st6" d="M27.8 59.2H39v11.2H27.8z"/><path id="XMLID_97_" class="st7" d="M38.1 60.1H34v4.2h4.2v-4.2zm-9.3 0v4.2H33v-4.2h-4.2zm9.3 5.2H34v4.2h4.2v-4.2zm-5.2 0h-4.2v4.2h4.2v-4.2z"/><path id="XMLID_30_" class="st6" d="M44.3 59.2h11.2v11.2H44.3z"/><path id="XMLID_91_" class="st7" d="M45.2 64.2h4.2V60h-4.2v4.2zm5.2-4.1v4.2h4.2v-4.2h-4.2zm-5.2 9.4h4.2v-4.2h-4.2v4.2zm5.2 0h4.2v-4.2h-4.2v4.2z"/><path id="XMLID_25_" class="st6" d="M60.7 59.2h11.2v11.2H60.7z"/><path id="XMLID_85_" class="st7" d="M61.6 64.2h4.2V60h-4.2v4.2zm0 5.3h4.2v-4.2h-4.2v4.2zm5.2 0H71v-4.2h-4.2v4.2zm0-9.4v4.2H71v-4.2h-4.2z"/><path id="XMLID_20_" class="st8" d="M24 36.2h51.4v1.2H24z"/><path id="XMLID_19_" class="st9" d="M24 35.4h51.4v1.2H24z"/><path id="XMLID_18_" class="st6" d="M44.3 78.6h11.2v11.2H44.3z"/><path id="XMLID_77_" class="st7" d="M45.2 83.7h4.2v-4.2h-4.2v4.2zm5.2-4.2v4.2h4.2v-4.2h-4.2zm-5.2 9.4h4.2v-4.2h-4.2v4.2zm5.2 0h4.2v-4.2h-4.2v4.2z"/><path id="XMLID_13_" class="st6" d="M60.7 78.6h11.2v11.2H60.7z"/><path id="XMLID_71_" class="st7" d="M61.6 88.9h4.2v-4.2h-4.2v4.2zm0-5.2h4.2v-4.2h-4.2v4.2zm5.2 5.2H71v-4.2h-4.2v4.2zm0-9.4v4.2H71v-4.2h-4.2z"/><g id="XMLID_62_"><path id="XMLID_8_" class="st6" d="M49.9 18.2c3.1 0 5.6 2.5 5.6 5.6v9.9H44.3v-9.9c0-3 2.5-5.6 5.6-5.6z"/><path id="XMLID_65_" class="st7" d="M54.1 24.2h-3.8V28h3.8v-3.8zm-8.5 0V28h3.8v-3.8h-3.8zm8.5 4.7h-3.8v3.8h3.8v-3.8zm-4.7 0h-3.8v3.8h3.8v-3.8z"/><path id="XMLID_3_" class="st7" d="M54.3 23.3h-3.9v-3.8c2 .1 3.7 1.7 3.9 3.8z"/><path id="XMLID_2_" class="st7" d="M49.4 19.5v3.8h-3.9c.2-2.1 1.8-3.7 3.9-3.8z"/></g><path id="XMLID_1_" class="st1" d="M50.5 10.5l28.3 26.4v2.3L50.5 12.9 20.6 39.2v-2.3z"/></g></svg>