<svg id="Layer_1" xmlns="http://www.w3.org/2000/svg" viewBox="0 0 100 100"><style>.st0{fill:#a0a397}.st1{fill:#5a4337}.st2{fill:#967348}.st3{fill:#a56c52}.st4{fill:#fff}.st5{fill:#ffe3a5}.st6{fill:#dbdcdd}.st7{fill:#c5c7c9}.st8{fill:#961b1e}</style><g id="XMLID_64_"><path id="XMLID_62_" class="st0" d="M21.3 27.3h56.1v62.1H21.3z"/><path id="XMLID_61_" class="st0" d="M21.3 5h6.6v20.2h-6.6z"/><path id="XMLID_60_" class="st1" d="M80.4 29.9H18.5l7-18.7h47.9z"/><path id="XMLID_59_" class="st1" d="M20.5 4.3h8.2v1.3h-8.2z"/><path id="XMLID_58_" class="st2" d="M19.3 89.3h60.4v3.9H19.3z"/><g id="XMLID_136_"><path id="XMLID_57_" class="st3" d="M42.8 16.4H30.6l1.4-2.5h9.4z"/><g id="XMLID_137_"><path id="XMLID_56_" class="st4" d="M31.5 16.4H42v10.5H31.5z"/><path id="XMLID_138_" class="st5" d="M32.3 21.2h3.9v-3.9h-3.9v3.9zm0 4.9h3.9v-3.9h-3.9v3.9zm4.9 0h3.9v-3.9h-3.9v3.9zm0-8.8v3.9h3.9v-3.9h-3.9z"/></g></g><g id="XMLID_127_"><path id="XMLID_51_" class="st3" d="M68 16.4H55.7l1.4-2.5h9.5z"/><g id="XMLID_128_"><path id="XMLID_50_" class="st4" d="M56.6 16.4h10.5v10.5H56.6z"/><path id="XMLID_129_" class="st5" d="M57.4 26.1h3.9v-3.9h-3.9v3.9zm0-4.9h3.9v-3.9h-3.9v3.9zm4.9 4.9h3.9v-3.9h-3.9v3.9zm0-8.8v3.9h3.9v-3.9h-3.9z"/></g></g><g id="XMLID_120_"><path id="XMLID_45_" class="st4" d="M43.2 33.8H56v12.8H43.2z"/><path id="XMLID_121_" class="st5" d="M44.2 39.6H49v-4.8h-4.8v4.8zm5.9-4.7v4.8h4.8v-4.8h-4.8zm-5.9 10.7H49v-4.8h-4.8v4.8zm5.9 0h4.8v-4.8h-4.8v4.8z"/></g><g id="XMLID_113_"><path id="XMLID_40_" class="st4" d="M60.9 33.8h12.8v12.8H60.9z"/><path id="XMLID_114_" class="st5" d="M62 39.6h4.8v-4.8H62v4.8zm5.9-4.7v4.8h4.8v-4.8h-4.8zM62 45.6h4.8v-4.8H62v4.8zm5.9 0h4.8v-4.8h-4.8v4.8z"/></g><g id="XMLID_106_"><path id="XMLID_35_" class="st4" d="M25.4 33.8h12.8v12.8H25.4z"/><path id="XMLID_107_" class="st5" d="M26.4 39.6h4.8v-4.8h-4.8v4.8zm6-4.7v4.8h4.8v-4.8h-4.8zm-6 10.7h4.8v-4.8h-4.8v4.8zm6 0h4.8v-4.8h-4.8v4.8z"/></g><g id="XMLID_99_"><path id="XMLID_30_" class="st4" d="M43.2 52.9H56v12.8H43.2z"/><path id="XMLID_100_" class="st5" d="M44.2 58.6H49v-4.8h-4.8v4.8zm5.9-4.7v4.8h4.8v-4.8h-4.8zm-5.9 10.7H49v-4.8h-4.8v4.8zm5.9 0h4.8v-4.8h-4.8v4.8z"/></g><g id="XMLID_92_"><path id="XMLID_25_" class="st4" d="M60.9 52.9h12.8v12.8H60.9z"/><path id="XMLID_93_" class="st5" d="M62 58.6h4.8v-4.8H62v4.8zm5.9-4.7v4.8h4.8v-4.8h-4.8zM62 64.6h4.8v-4.8H62v4.8zm5.9 0h4.8v-4.8h-4.8v4.8z"/></g><g id="XMLID_85_"><path id="XMLID_20_" class="st4" d="M25.4 52.9h12.8v12.8H25.4z"/><path id="XMLID_86_" class="st5" d="M26.4 58.6h4.8v-4.8h-4.8v4.8zm6-4.7v4.8h4.8v-4.8h-4.8zm-6 10.7h4.8v-4.8h-4.8v4.8zm6 0h4.8v-4.8h-4.8v4.8z"/></g><g id="XMLID_78_"><path id="XMLID_15_" class="st4" d="M43.2 71.2H56V84H43.2z"/><path id="XMLID_79_" class="st5" d="M44.2 77H49v-4.8h-4.8V77zm5.9-4.8V77h4.8v-4.8h-4.8zm-5.9 10.7H49v-4.8h-4.8v4.8zm5.9 0h4.8v-4.8h-4.8v4.8z"/></g><g id="XMLID_71_"><path id="XMLID_10_" class="st4" d="M25.4 71.2h12.8V84H25.4z"/><path id="XMLID_72_" class="st5" d="M26.4 77h4.8v-4.8h-4.8V77zm6-4.8V77h4.8v-4.8h-4.8zm-6 10.7h4.8v-4.8h-4.8v4.8zm6 0h4.8v-4.8h-4.8v4.8z"/></g><path id="XMLID_5_" class="st6" d="M62.2 89.3H75v2H62.2z"/><path id="XMLID_4_" class="st7" d="M61.1 91.3h15v2h-15z"/><g id="XMLID_65_"><path id="XMLID_3_" class="st4" d="M62.8 70.6h11.6v18.7H62.8z"/><path id="XMLID_2_" class="st8" d="M64.1 72v17.3H73V72h-8.9z"/><path id="XMLID_1_" class="st7" d="M64.8 78.9h.7v3.4h-.7z"/></g></g></svg>