<svg id="Layer_1" xmlns="http://www.w3.org/2000/svg" viewBox="0 0 100 100"><style>.st0{fill:#fff100}.st1{fill:#404041}.st2{fill:#d8e1e7}.st3{fill:#313e44}.st4{fill:#8a8c8f}.st5{fill:#fff}.st6{fill:#1e5785}.st7{fill:#dbdcdd}.st8{fill:#c5c7c9}.st9{fill:#929497}.st10{fill:#c6e9fa}.st11{fill:#a0a2a4}.st12{fill:#bbbdbf}</style><g id="XMLID_135_"><path id="XMLID_57_" class="st0" d="M81.9 47.4h3.7l1.5-8.4h-6.7z"/><path id="XMLID_136_" class="st1" d="M87 38.6l-2.6-2.3v-1.5h-1.2v1.5l-2.6 2.3h-1.5v.8h1.1l1.5 8.3H83v34.6h-1.3v12.9H86V82.3h-1.3V47.7H86l1.5-8.3h1.1v-.8H87zm-5.1 8l-1.3-7.2h3v7.2h-1.7zm3.8 0H84v-7.2h3l-1.3 7.2z"/></g><g id="XMLID_59_"><path id="XMLID_53_" class="st2" d="M8.2 19.8h62.1V91H8.2z"/><path id="XMLID_52_" class="st3" d="M73.1 22.4h-68L7.8 2.6h62.6z"/><path id="XMLID_51_" class="st4" d="M6.3 91h65.9v4.2H6.3z"/><g id="XMLID_124_"><path id="XMLID_50_" class="st5" d="M48.5 69.7h20.2V91H48.5z"/><path id="XMLID_49_" class="st6" d="M49.9 71.3V91h17.4V71.3H49.9z"/><path id="XMLID_48_" class="st7" d="M47.5 91h22.2v2.1H47.5z"/><path id="XMLID_47_" class="st8" d="M45.5 93.1h26v2.1h-26z"/><g id="XMLID_125_"><path id="XMLID_46_" class="st8" d="M59.5 79.9h.7v3.6h-.7z"/><path id="XMLID_45_" class="st8" d="M56.9 79.9h.7v3.6h-.7z"/></g></g><g id="XMLID_99_"><g id="XMLID_117_"><path id="XMLID_44_" class="st9" d="M52.2 24.2h13.6v13.6H52.2z"/><path id="XMLID_118_" class="st10" d="M53.3 30.4h5.1v-5.1h-5.1v5.1zm6.3-5.1v5.1h5.1v-5.1h-5.1zm-6.3 11.4h5.1v-5.1h-5.1v5.1zm6.3 0h5.1v-5.1h-5.1v5.1z"/></g><g id="XMLID_110_"><path id="XMLID_39_" class="st9" d="M32.4 24.2H46v13.6H32.4z"/><path id="XMLID_111_" class="st10" d="M33.4 30.4h5.1v-5.1h-5.1v5.1zm6.4-5.1v5.1h5.1v-5.1h-5.1zm-6.4 11.4h5.1v-5.1h-5.1v5.1zm6.4 0h5.1v-5.1h-5.1v5.1z"/></g><g id="XMLID_103_"><path id="XMLID_34_" class="st9" d="M12.5 24.2h13.6v13.6H12.5z"/><path id="XMLID_104_" class="st10" d="M13.6 36.7h5.1v-5.1h-5.1v5.1zm6.3-11.4v5.1H25v-5.1h-5.1zm-6.3 5.1h5.1v-5.1h-5.1v5.1zm6.3 6.3H25v-5.1h-5.1v5.1z"/></g><g id="XMLID_100_"><path id="XMLID_29_" class="st11" d="M8.2 41.5h62.1V43H8.2z"/><path id="XMLID_28_" class="st12" d="M8.2 40.9h62.1v1.5H8.2z"/></g></g><g id="XMLID_74_"><g id="XMLID_92_"><path id="XMLID_27_" class="st9" d="M52.2 47.7h13.6v13.6H52.2z"/><path id="XMLID_93_" class="st10" d="M53.3 53.9h5.1v-5.1h-5.1v5.1zm6.3-5.1v5.1h5.1v-5.1h-5.1zm-6.3 11.4h5.1v-5.1h-5.1v5.1zm6.3 0h5.1v-5.1h-5.1v5.1z"/></g><g id="XMLID_85_"><path id="XMLID_22_" class="st9" d="M32.4 47.7H46v13.6H32.4z"/><path id="XMLID_86_" class="st10" d="M33.4 53.9h5.1v-5.1h-5.1v5.1zm6.4-5.1v5.1h5.1v-5.1h-5.1zm-6.4 11.4h5.1v-5.1h-5.1v5.1zm6.4 0h5.1v-5.1h-5.1v5.1z"/></g><g id="XMLID_78_"><path id="XMLID_17_" class="st9" d="M12.5 47.7h13.6v13.6H12.5z"/><path id="XMLID_79_" class="st10" d="M13.6 60.2h5.1v-5.1h-5.1v5.1zm0-6.3h5.1v-5.1h-5.1v5.1zm6.3-5.1v5.1H25v-5.1h-5.1zm0 11.4H25v-5.1h-5.1v5.1z"/></g><g id="XMLID_75_"><path id="XMLID_12_" class="st11" d="M8.2 65h62.1v1.5H8.2z"/><path id="XMLID_11_" class="st12" d="M8.2 64.4h62.1v1.5H8.2z"/></g></g><g id="XMLID_67_"><path id="XMLID_10_" class="st9" d="M32.4 71.2H46v13.6H32.4z"/><path id="XMLID_68_" class="st10" d="M33.4 77.4h5.1v-5.1h-5.1v5.1zm6.4-5.1v5.1h5.1v-5.1h-5.1zm-6.4 11.4h5.1v-5.1h-5.1v5.1zm6.4 0h5.1v-5.1h-5.1v5.1z"/></g><g id="XMLID_60_"><path id="XMLID_5_" class="st9" d="M12.5 71.2h13.6v13.6H12.5z"/><path id="XMLID_61_" class="st10" d="M13.6 83.7h5.1v-5.1h-5.1v5.1zm0-6.3h5.1v-5.1h-5.1v5.1zm6.3 6.3H25v-5.1h-5.1v5.1zm0-11.4v5.1H25v-5.1h-5.1z"/></g></g></svg>