<?xml version="1.0" encoding="utf-8"?>
<!-- Generator: Adobe Illustrator 19.0.0, SVG Export Plug-In . SVG Version: 6.00 Build 0)  -->
<svg version="1.1" id="Layer_1" xmlns="http://www.w3.org/2000/svg" xmlns:xlink="http://www.w3.org/1999/xlink" x="0px" y="0px"
	 viewBox="0 0 394 100" style="enable-background:new 0 0 394 100;" xml:space="preserve">
<style type="text/css">
	.st0{fill:#683C1E;}
	.st1{fill:#58B344;}
	.st2{fill:#289C43;}
	.st3{fill:#A0A397;}
	.st4{fill:#5A4337;}
	.st5{fill:#967348;}
	.st6{fill:#A56C52;}
	.st7{fill:#FFFFFF;}
	.st8{fill:#FFE3A5;}
	.st9{fill:#DBDCDD;}
	.st10{fill:#C5C7C9;}
	.st11{fill:#961B1E;}
	.st12{fill:#F5A46E;}
	.st13{fill:#9F410D;}
	.st14{fill:#834347;}
	.st15{fill:#C6E9FA;}
	.st16{fill:#808184;}
	.st17{fill:#D8E1E7;}
	.st18{fill:#313E44;}
	.st19{fill:#8A8C8F;}
	.st20{fill:#1E5785;}
	.st21{fill:#929497;}
	.st22{fill:#A0A2A4;}
	.st23{fill:#BBBDBF;}
	.st24{fill:#F2C050;}
	.st25{fill:#008ED3;}
	.st26{fill:#9C4E23;}
	.st27{fill:#B1B3B5;}
	.st28{fill:#9C9EA1;}
	.st29{fill:#6C5635;}
	.st30{fill:#48190F;}
	.st31{fill:#D06236;}
	.st32{fill:#823E46;}
	.st33{fill:#6B1F16;}
	.st34{fill:#83C141;}
	.st35{fill:#E6E7E8;}
</style>
<g id="XMLID_547_">
	<g id="XMLID_548_">
		<g id="XMLID_565_">
			<g id="XMLID_566_">
				<path id="XMLID_485_" class="st0" d="M67.2,99V89c0-0.2-0.2-0.4-0.4-0.4c-0.2,0-0.4,0.2-0.4,0.4v10H67.2z"/>
			</g>
		</g>
		<g id="XMLID_563_">
			<path id="XMLID_484_" class="st0" d="M66.8,93.1h-1.3c-0.9,0-1.7-0.7-1.7-1.5V86c0-0.2,0.1-0.3,0.3-0.3c0.2,0,0.3,0.1,0.3,0.3
				v5.5c0,0.5,0.5,0.9,1,0.9h1.3c0.2,0,0.3,0.1,0.3,0.3C67.1,93,67,93.1,66.8,93.1z"/>
		</g>
		<g id="XMLID_560_">
			<path id="XMLID_483_" class="st0" d="M68.1,94.8h-1.3c-0.2,0-0.3-0.1-0.3-0.3s0.1-0.3,0.3-0.3h1.3c0.6,0,1-0.4,1-0.9v-5.5
				c0-0.2,0.1-0.3,0.3-0.3s0.3,0.1,0.3,0.3v5.5C69.7,94.1,69,94.8,68.1,94.8z"/>
		</g>
		<g id="XMLID_549_">
			<g id="XMLID_558_">
				<path id="XMLID_482_" class="st1" d="M75.5,82c0-2.1-1.8-3.7-4.1-3.7c-1.2-1.1-2.9-1.7-4.7-1.7c0,0-0.1,0-0.1,0
					c-3.7,0-6.7,2.8-6.7,6.2c0,0.1,0,0.2,0,0.3c-0.9,0.2-1.6,1-1.6,1.9c0,1.1,0.9,1.9,2.1,1.9c0,0,0,0,0,0c0,0,0,0,0,0
					c0,0,0,0.1,0,0.1c0,1.7,1.5,3.1,3.3,3.1c0,0,0,0,0,0c0.7,0,1.4-0.2,1.9-0.5c0.7,0.6,1.6,1,2.7,1c0,0,0,0,0,0
					c1.8,0,3.4-1.2,3.8-2.7c0,0,0.1,0,0.1,0c0,0,0,0,0,0c1.2,0,2.2-0.9,2.2-2c0-0.4-0.1-0.8-0.4-1.1C75,83.9,75.5,83,75.5,82z"/>
			</g>
			<g id="XMLID_556_">
				<path id="XMLID_479_" class="st2" d="M71.5,83.7c0.1,0.2,0.2,0.5,0.2,0.8c0,1-0.8,1.9-2.4,1.8c0,0-0.5,0.4-0.9,0.4
					c-0.7,0-1.3-0.5-1.4-1.2c0,0.1,0,0.2,0,0.3c0,0.7,0.6,1.3,1.4,1.3c0.4,0,0.8-0.1,1-0.4c0.2,0.1,0.5,0.1,0.7,0.1
					c1.1,0,2-0.8,2-1.8C72.1,84.5,71.9,84,71.5,83.7z"/>
			</g>
			<g id="XMLID_553_">
				<path id="XMLID_478_" class="st2" d="M63.4,87c-0.8,0-1.6-0.4-2.1-0.9c0,0.9,0.8,1.7,1.9,1.7c0.8,0,1.6-0.5,1.8-1.2
					C64.5,86.8,64,87,63.4,87z"/>
			</g>
			<g id="XMLID_550_">
				<path id="XMLID_477_" class="st2" d="M68.2,82.7c-0.6,0.2-1-0.2-1-0.2c-0.2,0.2-0.7,0.5-0.9,0.6c-0.8,0.4-1.7,0.2-2.5-0.3
					c0.6,0.9,1.8,1.2,2.8,0.7c0.3-0.2,0.6-0.4,0.7-0.6c0.3,0.1,0.7,0.1,1,0c0.4-0.2,0.6-0.7,0.5-1.1C68.8,82.2,68.5,82.6,68.2,82.7z
					"/>
			</g>
		</g>
	</g>
</g>
<g id="XMLID_536_">
	<g id="XMLID_545_">
		<path id="XMLID_476_" class="st0" d="M35.8,99V87.9c0-0.7-0.7-1.3-1.5-1.3c-0.8,0-1.5,0.6-1.5,1.3V99H35.8z"/>
	</g>
	<g id="XMLID_543_">
		<path id="XMLID_475_" class="st0" d="M34.3,93.1H32c-2.2,0-3.9-1.6-3.9-3.5v-3.7c0-0.4,0.3-0.7,0.7-0.7c0.4,0,0.7,0.3,0.7,0.7v3.7
			c0,1.2,1.1,2.2,2.4,2.2h2.4c0.4,0,0.7,0.3,0.7,0.7C35.1,92.8,34.7,93.1,34.3,93.1z"/>
	</g>
	<g id="XMLID_541_">
		<path id="XMLID_472_" class="st0" d="M36.5,91h-2.4c-0.4,0-0.7-0.3-0.7-0.7s0.3-0.7,0.7-0.7h2.4c1.3,0,2.4-1,2.4-2.2v-2.4
			c0-0.4,0.3-0.7,0.7-0.7c0.4,0,0.7,0.3,0.7,0.7v2.4C40.4,89.4,38.7,91,36.5,91z"/>
	</g>
	<g id="XMLID_539_">
		<path id="XMLID_471_" class="st1" d="M28.9,71.9c-3.7,0-6.7,2.7-6.7,6.1v3.7c0,3.4,3,6.1,6.7,6.1h5.4V71.9H28.9z"/>
	</g>
	<g id="XMLID_537_">
		<path id="XMLID_470_" class="st2" d="M39.1,71.9h-4.8v15.8h4.8c3.7,0,6.7-2.7,6.7-6.1V78C45.8,74.6,42.8,71.9,39.1,71.9z"/>
	</g>
</g>
<g id="XMLID_524_">
	<g id="XMLID_534_">
		<rect id="XMLID_469_" x="192.6" y="83" class="st0" width="1.2" height="16"/>
	</g>
	<g id="XMLID_532_">
		<path id="XMLID_468_" class="st0" d="M193.2,90H191c-1.1,0-1.9-0.8-1.9-1.8v-5.5c0-0.3,0.3-0.5,0.6-0.5c0.3,0,0.6,0.2,0.6,0.5v5.5
			c0,0.4,0.3,0.7,0.8,0.7h2.2c0.3,0,0.6,0.2,0.6,0.5C193.8,89.7,193.5,90,193.2,90z"/>
	</g>
	<g id="XMLID_530_">
		<path id="XMLID_465_" class="st0" d="M197.5,86.6h-4.1c-0.3,0-0.6-0.2-0.6-0.5c0-0.3,0.3-0.5,0.6-0.5h4.1c0.4,0,0.8-0.3,0.8-0.7
			v-3.7c0-0.3,0.3-0.5,0.6-0.5c0.3,0,0.6,0.2,0.6,0.5v3.7C199.4,85.8,198.6,86.6,197.5,86.6z"/>
	</g>
	<g id="XMLID_528_">
		<path id="XMLID_464_" class="st1" d="M200.8,75.9c-0.3-3.5-3.6-6.3-7.6-6.3h0c-4.2,0-7.6,3.1-7.6,6.9v0c0,1.1,0.3,2.2,0.8,3.1
			c-0.3,0.5-0.4,1-0.4,1.6v0c0,1.9,1.7,3.4,3.7,3.4l0,0c1.1,0,2.1-0.4,2.8-1.2c0.2,0,0.5,0,0.7,0h0c1.4,0,2.8-0.4,3.9-1
			c0.5,0.2,1.1,0.4,1.7,0.4l0,0c2.2,0,4-1.6,4-3.6v0C202.8,77.7,202,76.5,200.8,75.9z"/>
	</g>
	<g id="XMLID_525_">
		<g id="XMLID_526_">
			<path id="XMLID_463_" class="st2" d="M198.8,80.1L198.8,80.1c-0.6,0-1.2-0.1-1.7-0.4c-1.1,0.6-2.5,1-3.9,1h0c-0.2,0-0.5,0-0.7,0
				c-0.7,0.7-1.7,1.2-2.8,1.2l0,0c-1.5,0-2.8-0.8-3.4-2c-0.2,0.4-0.3,0.9-0.3,1.4v0c0,1.9,1.7,3.4,3.7,3.4l0,0
				c1.1,0,2.1-0.4,2.8-1.2c0.2,0,0.5,0,0.7,0h0c1.4,0,2.8-0.4,3.9-1c0.5,0.2,1.1,0.4,1.7,0.4l0,0c2.2,0,4-1.6,4-3.6v0
				c0-0.5-0.1-0.9-0.3-1.4C202,79.1,200.5,80.1,198.8,80.1z"/>
		</g>
	</g>
</g>
<g id="XMLID_514_">
	<g id="XMLID_538_">
		<rect id="XMLID_540_" x="333.8" y="83" class="st0" width="1.2" height="16"/>
	</g>
	<g id="XMLID_533_">
		<path id="XMLID_535_" class="st0" d="M334.4,90h-2.2c-1.1,0-1.9-0.8-1.9-1.8v-5.5c0-0.3,0.3-0.5,0.6-0.5s0.6,0.2,0.6,0.5v5.5
			c0,0.4,0.3,0.7,0.8,0.7h2.2c0.3,0,0.6,0.2,0.6,0.5C334.9,89.7,334.7,90,334.4,90z"/>
	</g>
	<g id="XMLID_529_">
		<path id="XMLID_531_" class="st0" d="M338.6,86.6h-4.1c-0.3,0-0.6-0.2-0.6-0.5c0-0.3,0.3-0.5,0.6-0.5h4.1c0.4,0,0.8-0.3,0.8-0.7
			v-3.7c0-0.3,0.3-0.5,0.6-0.5c0.3,0,0.6,0.2,0.6,0.5v3.7C340.6,85.8,339.7,86.6,338.6,86.6z"/>
	</g>
	<g id="XMLID_523_">
		<path id="XMLID_527_" class="st1" d="M341.9,75.9c-0.3-3.5-3.6-6.3-7.6-6.3h0c-4.2,0-7.6,3.1-7.6,6.9v0c0,1.1,0.3,2.2,0.8,3.1
			c-0.3,0.5-0.4,1-0.4,1.6v0c0,1.9,1.7,3.4,3.7,3.4l0,0c1.1,0,2.1-0.4,2.8-1.2c0.2,0,0.5,0,0.7,0h0c1.4,0,2.8-0.4,3.9-1
			c0.5,0.2,1.1,0.4,1.7,0.4h0c2.2,0,4-1.6,4-3.6v0C344,77.7,343.2,76.5,341.9,75.9z"/>
	</g>
	<g id="XMLID_516_">
		<g id="XMLID_519_">
			<path id="XMLID_521_" class="st2" d="M340,80.1L340,80.1c-0.6,0-1.2-0.1-1.7-0.4c-1.1,0.6-2.5,1-3.9,1h0c-0.2,0-0.5,0-0.7,0
				c-0.7,0.7-1.7,1.2-2.8,1.2l0,0c-1.5,0-2.8-0.8-3.4-2c-0.2,0.4-0.3,0.9-0.3,1.4v0c0,1.9,1.7,3.4,3.7,3.4l0,0
				c1.1,0,2.1-0.4,2.8-1.2c0.2,0,0.5,0,0.7,0h0c1.4,0,2.8-0.4,3.9-1c0.5,0.2,1.1,0.4,1.7,0.4h0c2.2,0,4-1.6,4-3.6v0
				c0-0.5-0.1-0.9-0.3-1.4C343.1,79.1,341.7,80.1,340,80.1z"/>
		</g>
	</g>
</g>
<g id="XMLID_493_">
	<g id="XMLID_517_">
		<g id="XMLID_522_">
			<rect id="XMLID_462_" x="119.6" y="79.4" class="st0" width="1.2" height="19.6"/>
		</g>
		<g id="XMLID_520_">
			<path id="XMLID_461_" class="st0" d="M120.2,89.8H118c-1,0-1.8-0.7-1.8-1.6v-3c0-0.2,0.2-0.4,0.4-0.4s0.4,0.2,0.4,0.4v3
				c0,0.5,0.4,0.8,0.9,0.8h2.2c0.2,0,0.4,0.2,0.4,0.4C120.6,89.6,120.4,89.8,120.2,89.8z"/>
		</g>
		<g id="XMLID_518_">
			<path id="XMLID_458_" class="st0" d="M124.5,91.1h-4.1c-0.2,0-0.4-0.2-0.4-0.4c0-0.2,0.2-0.4,0.4-0.4h4.1c0.5,0,0.9-0.4,0.9-0.8
				v-3.7c0-0.2,0.2-0.4,0.4-0.4c0.2,0,0.4,0.2,0.4,0.4v3.7C126.2,90.4,125.5,91.1,124.5,91.1z"/>
		</g>
	</g>
	<g id="XMLID_509_">
		<g id="XMLID_515_">
			<path id="XMLID_457_" class="st1" d="M120.2,71.6c-2.6,0-4.8,1.6-5.4,3.8c-1.9,0-3.5,1.4-3.5,3.2c0,1.8,1.6,3.2,3.5,3.2
				c0.9,0,1.7-0.3,2.4-0.8c0.9,0.5,1.9,0.8,3.1,0.8c0,0,0,0,0.1,0L120.2,71.6C120.2,71.6,120.2,71.6,120.2,71.6z"/>
		</g>
		<g id="XMLID_513_">
			<path id="XMLID_456_" class="st2" d="M125.6,75.4C125.6,75.4,125.6,75.4,125.6,75.4c-0.6-2.2-2.8-3.8-5.4-3.8v10.2
				c1.1,0,2.2-0.3,3-0.8c0.6,0.5,1.5,0.8,2.4,0.8c1.9,0,3.5-1.4,3.5-3.2C129.1,76.8,127.6,75.4,125.6,75.4z"/>
		</g>
	</g>
	<g id="XMLID_504_">
		<g id="XMLID_507_">
			<path id="XMLID_455_" class="st1" d="M125.8,82.5c-1.4,0-2.6,0.9-2.9,2.1c-1,0-1.9,0.8-1.9,1.7c0,0.9,0.8,1.7,1.9,1.7
				c0.5,0,0.9-0.2,1.3-0.4c0.5,0.3,1,0.4,1.6,0.4c0,0,0,0,0,0L125.8,82.5C125.9,82.5,125.8,82.5,125.8,82.5z"/>
		</g>
		<g id="XMLID_505_">
			<path id="XMLID_454_" class="st2" d="M128.8,84.5C128.8,84.5,128.8,84.5,128.8,84.5c-0.3-1.2-1.5-2.1-2.9-2.1v5.5
				c0.6,0,1.2-0.2,1.6-0.5c0.3,0.3,0.8,0.5,1.3,0.5c1,0,1.9-0.8,1.9-1.7S129.8,84.5,128.8,84.5z"/>
		</g>
	</g>
	<g id="XMLID_496_">
		<g id="XMLID_499_">
			<path id="XMLID_451_" class="st1" d="M116.7,81.8c-1.2,0-2.3,0.8-2.5,1.8c-0.9,0-1.6,0.7-1.6,1.5c0,0.8,0.7,1.5,1.6,1.5
				c0.4,0,0.8-0.1,1.1-0.4c0.4,0.2,0.9,0.4,1.4,0.4c0,0,0,0,0,0L116.7,81.8C116.7,81.8,116.7,81.8,116.7,81.8z"/>
		</g>
		<g id="XMLID_497_">
			<path id="XMLID_450_" class="st2" d="M119.2,83.5C119.2,83.5,119.2,83.5,119.2,83.5c-0.3-1-1.3-1.8-2.5-1.8v4.8
				c0.5,0,1-0.1,1.4-0.4c0.3,0.2,0.7,0.4,1.1,0.4c0.9,0,1.6-0.7,1.6-1.5C120.9,84.2,120.1,83.5,119.2,83.5z"/>
		</g>
	</g>
</g>
<g id="XMLID_491_">
	<path id="XMLID_449_" class="st1" d="M45,98.8h9.6c0.3-0.3,0.1-0.8-0.3-1c-0.4-0.2-0.9-0.1-1.4,0c0.4-0.3,0.9-0.8,0.7-1.3
		c-0.2-0.4-0.7-0.6-1.2-0.6c-0.8-0.1-1.7,0-2.5,0.2c0.4-0.1,0.9-0.3,1.1-0.6c0.3-0.3,0.4-0.8,0.2-1.1c-0.3-0.6-1.3-0.7-2-0.6
		c-1,0.2-2.1,0.7-2.4,1.5c0-0.5-0.5-1-1.1-1.1c-0.7-0.1-1.4,0.3-1.8,0.9c-0.5,0.7-0.7,1.7-0.4,2.5C43.9,98.1,44.4,98.6,45,98.8z"/>
</g>
<g id="XMLID_490_">
	<path id="XMLID_492_" class="st1" d="M125,98.8h9.6c0.3-0.3,0.1-0.8-0.3-1c-0.4-0.2-0.9-0.1-1.4,0c0.4-0.3,0.9-0.8,0.7-1.3
		c-0.2-0.4-0.7-0.6-1.2-0.6c-0.8-0.1-1.7,0-2.5,0.2c0.4-0.1,0.9-0.3,1.1-0.6c0.3-0.3,0.4-0.8,0.2-1.1c-0.3-0.6-1.3-0.7-2-0.6
		c-1,0.2-2.1,0.7-2.4,1.5c0-0.5-0.5-1-1.1-1.1c-0.7-0.1-1.4,0.3-1.8,0.9c-0.5,0.7-0.7,1.7-0.4,2.5C123.9,98.1,124.4,98.6,125,98.8z"
		/>
</g>
<g id="XMLID_506_">
	<path id="XMLID_508_" class="st1" d="M205,98.8h9.6c0.3-0.3,0.1-0.8-0.3-1c-0.4-0.2-0.9-0.1-1.4,0c0.4-0.3,0.9-0.8,0.7-1.3
		c-0.2-0.4-0.7-0.6-1.2-0.6c-0.8-0.1-1.7,0-2.5,0.2c0.4-0.1,0.9-0.3,1.1-0.6c0.3-0.3,0.4-0.8,0.2-1.1c-0.3-0.6-1.3-0.7-2-0.6
		c-1,0.2-2.1,0.7-2.4,1.5c0-0.5-0.5-1-1.1-1.1c-0.7-0.1-1.4,0.3-1.8,0.9c-0.5,0.7-0.7,1.7-0.4,2.5C203.9,98.1,204.4,98.6,205,98.8z"
		/>
</g>
<g id="XMLID_542_">
	<path id="XMLID_544_" class="st1" d="M245,98.8h9.6c0.3-0.3,0.1-0.8-0.3-1c-0.4-0.2-0.9-0.1-1.4,0c0.4-0.3,0.9-0.8,0.7-1.3
		c-0.2-0.4-0.7-0.6-1.2-0.6c-0.8-0.1-1.7,0-2.5,0.2c0.4-0.1,0.9-0.3,1.1-0.6c0.3-0.3,0.4-0.8,0.2-1.1c-0.3-0.6-1.3-0.7-2-0.6
		c-1,0.2-2.1,0.7-2.4,1.5c0-0.5-0.5-1-1.1-1.1c-0.7-0.1-1.4,0.3-1.8,0.9c-0.5,0.7-0.7,1.7-0.4,2.5C243.9,98.1,244.4,98.6,245,98.8z"
		/>
</g>
<g id="XMLID_489_">
	<path id="XMLID_448_" class="st1" d="M103.3,98.8c-0.6,0-1.2-0.2-1.6-0.6c-0.4-0.4-0.3-1.1,0.1-1.5c0.5-0.4,1.3-0.2,1.5,0.3
		c-0.1-1.4,0.9-2.7,2.3-3.2c0.3-0.1,0.6-0.2,0.8-0.1c0.6,0.1,1,0.7,1,1.2c0,0.6-0.3,1.1-0.6,1.6c0.6-0.2,1.2-0.3,1.8-0.2
		c0.4,0,0.9,0.2,0.8,0.6c-0.1,0.4-0.7,0.4-0.9,0.8c0.5-0.1,1-0.1,1.5,0c0.4,0,0.8,0.1,1,0.4c0.2,0.3,0,0.8-0.4,0.8"/>
</g>
<g id="XMLID_498_">
	<path id="XMLID_500_" class="st1" d="M174.3,98.8c-0.6,0-1.2-0.2-1.6-0.6c-0.4-0.4-0.3-1.1,0.1-1.5c0.5-0.4,1.3-0.2,1.5,0.3
		c-0.1-1.4,0.9-2.7,2.3-3.2c0.3-0.1,0.6-0.2,0.8-0.1c0.6,0.1,1,0.7,1,1.2c0,0.6-0.3,1.1-0.6,1.6c0.6-0.2,1.2-0.3,1.8-0.2
		c0.4,0,0.9,0.2,0.8,0.6c-0.1,0.4-0.7,0.4-0.9,0.8c0.5-0.1,1-0.1,1.5,0c0.4,0,0.8,0.1,1,0.4c0.2,0.3,0,0.8-0.4,0.8"/>
</g>
<g id="XMLID_447_">
	<g id="XMLID_438_">
		<rect id="XMLID_215_" x="7" y="62.9" class="st3" width="30.7" height="33.9"/>
		<rect id="XMLID_214_" x="7" y="50.7" class="st3" width="3.6" height="11.1"/>
		<polygon id="XMLID_213_" class="st4" points="39.3,64.3 5.4,64.3 9.2,54.1 35.4,54.1 		"/>
		<rect id="XMLID_212_" x="6.5" y="50.3" class="st4" width="4.5" height="0.7"/>
		<rect id="XMLID_211_" x="5.8" y="96.8" class="st5" width="33" height="2.2"/>
		<g id="XMLID_510_">
			<polygon id="XMLID_210_" class="st6" points="18.7,57 12,57 12.8,55.6 17.9,55.6 			"/>
			<g id="XMLID_511_">
				<rect id="XMLID_209_" x="12.5" y="57" class="st7" width="5.8" height="5.8"/>
				<path id="XMLID_512_" class="st8" d="M12.9,59.6h2.1v-2.1h-2.1V59.6z M12.9,62.3h2.1v-2.1h-2.1V62.3z M15.6,62.3h2.1v-2.1h-2.1
					V62.3z M15.6,57.4v2.1h2.1v-2.1H15.6z"/>
			</g>
		</g>
		<g id="XMLID_501_">
			<polygon id="XMLID_204_" class="st6" points="32.4,57 25.8,57 26.5,55.6 31.7,55.6 			"/>
			<g id="XMLID_502_">
				<rect id="XMLID_203_" x="26.2" y="57" class="st7" width="5.8" height="5.8"/>
				<path id="XMLID_503_" class="st8" d="M26.7,62.3h2.1v-2.1h-2.1V62.3z M26.7,59.6h2.1v-2.1h-2.1V59.6z M29.4,62.3h2.1v-2.1h-2.1
					V62.3z M29.4,57.4v2.1h2.1v-2.1H29.4z"/>
			</g>
		</g>
		<g id="XMLID_494_">
			<rect id="XMLID_198_" x="18.9" y="66.5" class="st7" width="7" height="7"/>
			<path id="XMLID_495_" class="st8" d="M19.4,69.7h2.6v-2.6h-2.6V69.7z M22.7,67.1v2.6h2.6v-2.6H22.7z M19.4,72.9h2.6v-2.6h-2.6
				V72.9z M22.7,72.9h2.6v-2.6h-2.6V72.9z"/>
		</g>
		<g id="XMLID_487_">
			<rect id="XMLID_193_" x="28.6" y="66.5" class="st7" width="7" height="7"/>
			<path id="XMLID_488_" class="st8" d="M29.2,69.7h2.6v-2.6h-2.6V69.7z M32.4,67.1v2.6H35v-2.6H32.4z M29.2,72.9h2.6v-2.6h-2.6
				V72.9z M32.4,72.9H35v-2.6h-2.6V72.9z"/>
		</g>
		<g id="XMLID_480_">
			<rect id="XMLID_188_" x="9.2" y="66.5" class="st7" width="7" height="7"/>
			<path id="XMLID_481_" class="st8" d="M9.7,69.7h2.6v-2.6H9.7V69.7z M13,67.1v2.6h2.6v-2.6H13z M9.7,72.9h2.6v-2.6H9.7V72.9z
				 M13,72.9h2.6v-2.6H13V72.9z"/>
		</g>
		<g id="XMLID_473_">
			<rect id="XMLID_183_" x="18.9" y="76.9" class="st7" width="7" height="7"/>
			<path id="XMLID_474_" class="st8" d="M19.4,80.1h2.6v-2.6h-2.6V80.1z M22.7,77.5v2.6h2.6v-2.6H22.7z M19.4,83.3h2.6v-2.6h-2.6
				V83.3z M22.7,83.3h2.6v-2.6h-2.6V83.3z"/>
		</g>
		<g id="XMLID_466_">
			<rect id="XMLID_178_" x="28.6" y="76.9" class="st7" width="7" height="7"/>
			<path id="XMLID_467_" class="st8" d="M29.2,80.1h2.6v-2.6h-2.6V80.1z M32.4,77.5v2.6H35v-2.6H32.4z M29.2,83.3h2.6v-2.6h-2.6
				V83.3z M32.4,83.3H35v-2.6h-2.6V83.3z"/>
		</g>
		<g id="XMLID_459_">
			<rect id="XMLID_173_" x="9.2" y="76.9" class="st7" width="7" height="7"/>
			<path id="XMLID_460_" class="st8" d="M9.7,80.1h2.6v-2.6H9.7V80.1z M13,77.5v2.6h2.6v-2.6H13z M9.7,83.3h2.6v-2.6H9.7V83.3z
				 M13,83.3h2.6v-2.6H13V83.3z"/>
		</g>
		<g id="XMLID_452_">
			<rect id="XMLID_168_" x="18.9" y="86.9" class="st7" width="7" height="7"/>
			<path id="XMLID_453_" class="st8" d="M19.4,90.1h2.6v-2.6h-2.6V90.1z M22.7,87.5v2.6h2.6v-2.6H22.7z M19.4,93.4h2.6v-2.6h-2.6
				V93.4z M22.7,93.4h2.6v-2.6h-2.6V93.4z"/>
		</g>
		<g id="XMLID_445_">
			<rect id="XMLID_163_" x="9.2" y="86.9" class="st7" width="7" height="7"/>
			<path id="XMLID_446_" class="st8" d="M9.7,90.1h2.6v-2.6H9.7V90.1z M13,87.5v2.6h2.6v-2.6H13z M9.7,93.4h2.6v-2.6H9.7V93.4z
				 M13,93.4h2.6v-2.6H13V93.4z"/>
		</g>
		<rect id="XMLID_158_" x="29.3" y="96.8" class="st9" width="7" height="1.1"/>
		<rect id="XMLID_157_" x="28.7" y="97.9" class="st10" width="8.2" height="1.1"/>
		<g id="XMLID_439_">
			<rect id="XMLID_156_" x="29.6" y="86.6" class="st7" width="6.3" height="10.2"/>
			<path id="XMLID_155_" class="st11" d="M30.3,87.4c0,1.3,0,8.2,0,9.5c1,0,3.9,0,4.9,0c0-1.3,0-8.2,0-9.5
				C34.2,87.4,31.3,87.4,30.3,87.4z"/>
			<rect id="XMLID_154_" x="30.7" y="91.1" class="st10" width="0.4" height="1.9"/>
		</g>
	</g>
	<g id="XMLID_388_">
		<rect id="XMLID_153_" x="147.7" y="39.9" class="st12" width="21.8" height="56"/>
		<rect id="XMLID_152_" x="147" y="38.8" class="st13" width="23.2" height="1.1"/>
		<rect id="XMLID_151_" x="150.6" y="80.2" class="st7" width="7.2" height="11.6"/>
		<path id="XMLID_150_" class="st11" d="M157,81c0,1.4,0,9.3,0,10.7c-1.1,0-4.4,0-5.5,0c0-1.4,0-9.3,0-10.7
			C152.6,81,155.9,81,157,81z"/>
		<rect id="XMLID_149_" x="156" y="85.3" class="st10" width="0.5" height="2.1"/>
		<rect id="XMLID_148_" x="159.7" y="80.4" class="st14" width="7.9" height="7.9"/>
		<path id="XMLID_427_" class="st15" d="M160.4,87.7h2.9v-2.9h-2.9V87.7z M160.4,84h2.9V81h-2.9V84z M164,87.7h2.9v-2.9H164V87.7z
			 M164,81V84h0.9h2V81H164z"/>
		<rect id="XMLID_143_" x="159.7" y="67.5" class="st14" width="7.9" height="7.9"/>
		<path id="XMLID_421_" class="st15" d="M160.4,71.1h2.9v-2.9h-2.9V71.1z M160.4,74.8h2.9v-2.9h-2.9V74.8z M164,74.8h2.9v-2.9H164
			V74.8z M164,68.2v2.9h0.9h2v-2.9H164z"/>
		<rect id="XMLID_138_" x="149.6" y="67.5" class="st14" width="7.9" height="7.9"/>
		<path id="XMLID_415_" class="st15" d="M150.2,74.8h2.9v-2.9h-2.9V74.8z M150.2,71.1h2.9v-2.9h-2.9V71.1z M153.9,74.8h2.9v-2.9
			h-2.9V74.8z M153.9,68.2v2.9h0.9h2v-2.2v-0.7H153.9z"/>
		<rect id="XMLID_133_" x="159.7" y="41.9" class="st14" width="7.9" height="7.9"/>
		<path id="XMLID_409_" class="st15" d="M160.4,49.1h2.9v-2.9h-2.9V49.1z M160.4,45.5h2.9v-2.9h-2.9V45.5z M164,49.1h2.9v-2.9H164
			V49.1z M164,42.5v2.9h0.9h2v-2.9H164z"/>
		<rect id="XMLID_128_" x="149.6" y="41.9" class="st14" width="7.9" height="7.9"/>
		<path id="XMLID_403_" class="st15" d="M150.2,45.5h2.9v-2.9h-2.9V45.5z M150.2,49.1h2.9v-2.9h-2.9V49.1z M153.9,42.5v2.9h0.9h2
			v-2.2v-0.7H153.9z M153.9,49.1h2.9v-2.9h-2.9V49.1z"/>
		<rect id="XMLID_123_" x="159.7" y="54.7" class="st14" width="7.9" height="7.9"/>
		<path id="XMLID_397_" class="st15" d="M160.4,58.3h2.9v-2.9h-2.9V58.3z M160.4,62h2.9V59h-2.9V62z M164,62h2.9V59H164V62z
			 M164,55.3v2.9h0.9h2v-2.9H164z"/>
		<rect id="XMLID_118_" x="149.6" y="54.7" class="st14" width="7.9" height="7.9"/>
		<path id="XMLID_391_" class="st15" d="M150.2,62h2.9V59h-2.9V62z M150.2,58.3h2.9v-2.9h-2.9V58.3z M153.9,62h2.9V59h-2.9V62z
			 M153.9,55.3v2.9h0.9h2V56v-0.7H153.9z"/>
		<rect id="XMLID_113_" x="146.9" y="92.5" class="st16" width="23.4" height="6.5"/>
		<polygon id="XMLID_112_" class="st9" points="163.1,97.8 163.1,96.5 161.9,96.5 161.9,95.3 160.6,95.3 160.6,94.1 159.4,94.1 
			159.4,92.9 158.2,92.9 158.2,91.7 150.3,91.7 150.3,99 164.3,99 164.3,97.8 		"/>
	</g>
	<g id="XMLID_312_">
		<rect id="XMLID_111_" x="74.5" y="60.1" class="st17" width="32.1" height="36.7"/>
		<polygon id="XMLID_110_" class="st18" points="108,61.5 72.9,61.5 74.3,51.2 106.6,51.2 		"/>
		<rect id="XMLID_109_" x="73.6" y="96.8" class="st19" width="34" height="2.2"/>
		<g id="XMLID_377_">
			<rect id="XMLID_108_" x="95.3" y="85.9" class="st7" width="10.4" height="11"/>
			<path id="XMLID_107_" class="st20" d="M96,86.7c0,1.4,0,8.8,0,10.2c1.8,0,7.1,0,9,0c0-1.4,0-8.8,0-10.2
				C103.2,86.7,97.9,86.7,96,86.7z"/>
			<rect id="XMLID_106_" x="94.8" y="96.8" class="st9" width="11.5" height="1.1"/>
			<rect id="XMLID_105_" x="93.8" y="97.9" class="st10" width="13.4" height="1.1"/>
			<g id="XMLID_378_">
				<rect id="XMLID_104_" x="101" y="91.1" class="st10" width="0.3" height="1.9"/>
				<rect id="XMLID_103_" x="99.7" y="91.1" class="st10" width="0.3" height="1.9"/>
			</g>
		</g>
		<g id="XMLID_352_">
			<g id="XMLID_370_">
				<rect id="XMLID_102_" x="97.2" y="62.4" class="st21" width="7" height="7"/>
				<path id="XMLID_371_" class="st15" d="M97.8,65.6h2.6V63h-2.6V65.6z M101.1,63v2.6h2.6V63H101.1z M97.8,68.8h2.6v-2.6h-2.6V68.8
					z M101.1,68.8h2.6v-2.6h-2.6V68.8z"/>
			</g>
			<g id="XMLID_363_">
				<rect id="XMLID_97_" x="87" y="62.4" class="st21" width="7" height="7"/>
				<path id="XMLID_364_" class="st15" d="M87.6,65.6h2.6V63h-2.6V65.6z M90.8,63v2.6h2.6V63H90.8z M87.6,68.8h2.6v-2.6h-2.6V68.8z
					 M90.8,68.8h2.6v-2.6h-2.6V68.8z"/>
			</g>
			<g id="XMLID_356_">
				<rect id="XMLID_92_" x="76.7" y="62.4" class="st21" width="7" height="7"/>
				<path id="XMLID_357_" class="st15" d="M77.3,68.8h2.6v-2.6h-2.6V68.8z M80.6,63v2.6h2.6V63H80.6z M77.3,65.6h2.6V63h-2.6V65.6z
					 M80.6,68.8h2.6v-2.6h-2.6V68.8z"/>
			</g>
			<g id="XMLID_353_">
				<rect id="XMLID_87_" x="74.5" y="71.3" class="st22" width="32.1" height="0.8"/>
				<rect id="XMLID_86_" x="74.5" y="71" class="st23" width="32.1" height="0.8"/>
			</g>
		</g>
		<g id="XMLID_327_">
			<g id="XMLID_345_">
				<rect id="XMLID_85_" x="97.2" y="74.5" class="st21" width="7" height="7"/>
				<path id="XMLID_346_" class="st15" d="M97.8,77.7h2.6v-2.6h-2.6V77.7z M101.1,75.1v2.6h2.6v-2.6H101.1z M97.8,80.9h2.6v-2.6
					h-2.6V80.9z M101.1,80.9h2.6v-2.6h-2.6V80.9z"/>
			</g>
			<g id="XMLID_338_">
				<rect id="XMLID_80_" x="87" y="74.5" class="st21" width="7" height="7"/>
				<path id="XMLID_339_" class="st15" d="M87.6,77.7h2.6v-2.6h-2.6V77.7z M90.8,75.1v2.6h2.6v-2.6H90.8z M87.6,80.9h2.6v-2.6h-2.6
					V80.9z M90.8,80.9h2.6v-2.6h-2.6V80.9z"/>
			</g>
			<g id="XMLID_331_">
				<rect id="XMLID_75_" x="76.7" y="74.5" class="st21" width="7" height="7"/>
				<path id="XMLID_332_" class="st15" d="M77.3,80.9h2.6v-2.6h-2.6V80.9z M77.3,77.7h2.6v-2.6h-2.6V77.7z M80.6,75.1v2.6h2.6v-2.6
					H80.6z M80.6,80.9h2.6v-2.6h-2.6V80.9z"/>
			</g>
			<g id="XMLID_328_">
				<rect id="XMLID_70_" x="74.5" y="83.5" class="st22" width="32.1" height="0.8"/>
				<rect id="XMLID_69_" x="74.5" y="83.1" class="st23" width="32.1" height="0.8"/>
			</g>
		</g>
		<g id="XMLID_320_">
			<rect id="XMLID_68_" x="87" y="86.7" class="st21" width="7" height="7"/>
			<path id="XMLID_321_" class="st15" d="M87.6,89.8h2.6v-2.6h-2.6V89.8z M90.8,87.2v2.6h2.6v-2.6H90.8z M87.6,93.1h2.6v-2.6h-2.6
				V93.1z M90.8,93.1h2.6v-2.6h-2.6V93.1z"/>
		</g>
		<g id="XMLID_313_">
			<rect id="XMLID_63_" x="76.7" y="86.7" class="st21" width="7" height="7"/>
			<path id="XMLID_314_" class="st15" d="M77.3,93.1h2.6v-2.6h-2.6V93.1z M77.3,89.8h1.8h0.8v-2.6h-2.6V89.8z M80.6,93.1h2.6v-2.6
				h-2.6V93.1z M80.6,87.2v2.6h2.6v-2.6H80.6z"/>
		</g>
	</g>
	<g id="XMLID_243_">
		<polygon id="XMLID_58_" class="st17" points="242.8,60.1 227.1,45.6 210.7,60.1 210.7,96.8 242.8,96.8 		"/>
		<rect id="XMLID_57_" x="209.7" y="96.8" class="st19" width="34" height="2.2"/>
		<rect id="XMLID_56_" x="211.6" y="85.9" class="st7" width="10.4" height="11"/>
		<path id="XMLID_55_" class="st20" d="M221.3,86.7c0,1.4,0,8.8,0,10.2c-1.8,0-7.1,0-9,0c0-1.4,0-8.8,0-10.2
			C214.1,86.7,219.5,86.7,221.3,86.7z"/>
		<rect id="XMLID_54_" x="211.1" y="96.8" class="st9" width="11.5" height="1.1"/>
		<rect id="XMLID_53_" x="210.1" y="97.9" class="st10" width="13.4" height="1.1"/>
		<rect id="XMLID_52_" x="215.9" y="91.1" class="st10" width="0.3" height="1.9"/>
		<rect id="XMLID_51_" x="217.3" y="91.1" class="st10" width="0.3" height="1.9"/>
		<rect id="XMLID_50_" x="213.1" y="62.4" class="st21" width="7" height="7"/>
		<path id="XMLID_298_" class="st15" d="M219.5,63h-2.6v2.6h2.6V63z M213.6,63v2.6h2.6V63H213.6z M219.5,66.2h-2.6v2.6h2.6V66.2z
			 M216.3,66.2h-2.6v2.6h2.6V66.2z"/>
		<rect id="XMLID_45_" x="223.3" y="62.4" class="st21" width="7" height="7"/>
		<path id="XMLID_292_" class="st15" d="M229.8,63h-2.6v2.6h2.6V63z M223.9,63v2.6h2.6V63H223.9z M229.8,66.2h-2.6v2.6h2.6V66.2z
			 M226.5,66.2h-2.6v2.6h2.6V66.2z"/>
		<rect id="XMLID_40_" x="233.6" y="62.4" class="st21" width="7" height="7"/>
		<path id="XMLID_286_" class="st15" d="M234.1,68.8h2.6v-2.6h-2.6V68.8z M234.1,65.6h2.6V63h-2.6V65.6z M237.4,68.8h2.6v-2.6h-2.6
			V68.8z M237.4,63v2.6h0.8h1.8V63H237.4z"/>
		<rect id="XMLID_35_" x="213.1" y="74.5" class="st21" width="7" height="7"/>
		<path id="XMLID_280_" class="st15" d="M219.5,75.1h-2.6v2.6h2.6V75.1z M213.6,75.1v2.6h2.6v-2.6H213.6z M219.5,78.3h-2.6v2.6h2.6
			V78.3z M216.3,78.3h-2.6v2.6h2.6V78.3z"/>
		<rect id="XMLID_30_" x="223.3" y="74.5" class="st21" width="7" height="7"/>
		<path id="XMLID_274_" class="st15" d="M223.9,77.7h2.6v-2.6h-2.6V77.7z M227.1,75.1v2.6h2.6v-2.6H227.1z M223.9,80.9h2.6v-2.6
			h-2.6V80.9z M227.1,80.9h2.6v-2.6h-2.6V80.9z"/>
		<rect id="XMLID_25_" x="233.6" y="74.5" class="st21" width="7" height="7"/>
		<path id="XMLID_268_" class="st15" d="M234.1,77.7h2.6v-2.6h-2.6V77.7z M234.1,80.9h2.6v-2.6h-2.6V80.9z M237.4,80.9h2.6v-2.6
			h-2.6V80.9z M237.4,75.1v2.6h0.8h1.8v-2.6H237.4z"/>
		<rect id="XMLID_20_" x="210.7" y="60.2" class="st22" width="32.1" height="0.8"/>
		<rect id="XMLID_19_" x="210.7" y="59.7" class="st23" width="32.1" height="0.8"/>
		<rect id="XMLID_18_" x="223.3" y="86.7" class="st21" width="7" height="7"/>
		<path id="XMLID_260_" class="st15" d="M223.9,89.8h2.6v-2.6h-2.6V89.8z M227.1,87.2v2.6h2.6v-2.6H227.1z M223.9,93.1h2.6v-2.6
			h-2.6V93.1z M227.1,93.1h2.6v-2.6h-2.6V93.1z"/>
		<rect id="XMLID_13_" x="233.6" y="86.7" class="st21" width="7" height="7"/>
		<path id="XMLID_254_" class="st15" d="M234.1,93.1h2.6v-2.6h-2.6V93.1z M234.1,89.8h2.6v-2.6h-2.6V89.8z M237.4,93.1h2.6v-2.6
			h-2.6V93.1z M237.4,87.2v2.6h0.8h1.8v-2.6H237.4z"/>
		<g id="XMLID_245_">
			<path id="XMLID_8_" class="st21" d="M226.8,49c1.9,0,3.5,1.6,3.5,3.5v6.2h-7v-6.2C223.3,50.6,224.9,49,226.8,49z"/>
			<path id="XMLID_248_" class="st15" d="M229.5,52.7h-2.4v2.4h2.4V52.7z M224.2,52.7v2.4h2.4v-2.4H224.2z M229.5,55.7h-2.4V58h2.4
				V55.7z M226.5,55.7h-2.4V58h2.4V55.7z"/>
			<path id="XMLID_3_" class="st15" d="M229.6,52.1h-2.4v-2.3C228.4,49.8,229.4,50.8,229.6,52.1z"/>
			<path id="XMLID_2_" class="st15" d="M226.5,49.8v2.3h-2.4C224.2,50.8,225.2,49.8,226.5,49.8z"/>
		</g>
		<polygon id="XMLID_1_" class="st19" points="227.2,44.2 244.9,60.6 244.9,62.1 227.2,45.6 208.5,62.1 208.5,60.6 		"/>
	</g>
	<g id="XMLID_655_">
		<rect id="XMLID_444_" x="339.9" y="65.7" class="st24" width="46.1" height="30.9"/>
		<rect id="XMLID_443_" x="368.5" y="67.2" class="st7" width="6.6" height="6.6"/>
		<path id="XMLID_730_" class="st25" d="M369.2,70.2h2.2V68h-2.2V70.2z M372.1,68v2.2h2.2V68H372.1z M369.2,73h2.2v-2.2h-2.2V73z
			 M372.1,73h2.2v-2.2h-2.2V73z"/>
		<rect id="XMLID_436_" x="368.5" y="83.6" class="st7" width="6.6" height="6.6"/>
		<path id="XMLID_724_" class="st25" d="M369.2,86.7h2.2v-2.2h-2.2V86.7z M372.1,84.4v2.2h2.2v-2.2H372.1z M369.2,89.5h2.2v-2.2
			h-2.2V89.5z M372.1,89.5h2.2v-2.2h-2.2V89.5z"/>
		<rect id="XMLID_431_" x="359.7" y="67.2" class="st7" width="6.6" height="6.6"/>
		<path id="XMLID_718_" class="st25" d="M360.5,70.2h2.2V68h-2.2V70.2z M363.3,68v2.2h2.2V68H363.3z M360.5,73h2.2v-2.2h-2.2V73z
			 M363.3,73h2.2v-2.2h-2.2V73z"/>
		<rect id="XMLID_425_" x="350.9" y="67.2" class="st7" width="6.6" height="6.6"/>
		<path id="XMLID_712_" class="st25" d="M351.7,70.2h2.2V68h-2.2V70.2z M354.5,68v2.2h2.2V68H354.5z M351.7,73h2.2v-2.2h-2.2V73z
			 M354.5,73h2.2v-2.2h-2.2V73z"/>
		<rect id="XMLID_419_" x="350.9" y="83.6" class="st7" width="6.6" height="6.6"/>
		<path id="XMLID_706_" class="st25" d="M351.7,86.7h2.2v-2.2h-2.2V86.7z M354.5,84.4v2.2h2.2v-2.2H354.5z M351.7,89.5h2.2v-2.2
			h-2.2V89.5z M354.5,89.5h2.2v-2.2h-2.2V89.5z"/>
		<rect id="XMLID_413_" x="342.1" y="67.2" class="st7" width="6.6" height="6.6"/>
		<path id="XMLID_700_" class="st25" d="M342.9,70.2h2.2V68h-2.2V70.2z M345.7,68v2.2h2.2V68H345.7z M342.9,73h2.2v-2.2h-2.2V73z
			 M345.7,73h2.2v-2.2h-2.2V73z"/>
		<rect id="XMLID_407_" x="377.2" y="67.2" class="st7" width="6.6" height="6.6"/>
		<path id="XMLID_694_" class="st25" d="M378,70.2h2.2V68H378V70.2z M380.8,68v2.2h2.2V68H380.8z M378,73h2.2v-2.2H378V73z
			 M380.8,73h2.2v-2.2h-2.2V73z"/>
		<rect id="XMLID_401_" x="342.1" y="83.6" class="st7" width="6.6" height="6.6"/>
		<path id="XMLID_688_" class="st25" d="M342.9,86.7h2.2v-2.2h-2.2V86.7z M345.7,84.4v2.2h2.2v-2.2H345.7z M342.9,89.5h2.2v-2.2
			h-2.2V89.5z M345.7,89.5h2.2v-2.2h-2.2V89.5z"/>
		<rect id="XMLID_395_" x="377.2" y="83.6" class="st7" width="6.6" height="6.6"/>
		<path id="XMLID_682_" class="st25" d="M378,86.7h2.2v-2.2H378V86.7z M380.8,84.4v2.2h2.2v-2.2H380.8z M378,89.5h2.2v-2.2H378V89.5
			z M380.8,89.5h2.2v-2.2h-2.2V89.5z"/>
		<rect id="XMLID_389_" x="339.2" y="94.7" class="st16" width="47.5" height="3.7"/>
		<polygon id="XMLID_387_" class="st26" points="388.1,65.7 337.9,65.7 343.6,50.8 382.4,50.8 		"/>
		<path id="XMLID_386_" class="st7" d="M362.9,81.9c-2.3,0-4.2,1.9-4.2,4.2h8.3C367.1,83.8,365.2,81.9,362.9,81.9z"/>
		<path id="XMLID_676_" class="st25" d="M363.1,82.4v3.3h3.4C366.3,83.9,364.9,82.5,363.1,82.4z M359.3,85.7h3.4v-3.3
			C360.9,82.5,359.5,83.9,359.3,85.7z"/>
		<rect id="XMLID_383_" x="358.3" y="94.7" class="st9" width="9.2" height="0.9"/>
		<rect id="XMLID_382_" x="357.5" y="95.6" class="st10" width="10.8" height="0.9"/>
		<rect id="XMLID_381_" x="356.9" y="96.6" class="st27" width="12" height="0.9"/>
		<rect id="XMLID_380_" x="356.3" y="97.5" class="st28" width="13.3" height="0.9"/>
		<rect id="XMLID_379_" x="358.7" y="86" class="st7" width="8.3" height="8.7"/>
		<path id="XMLID_376_" class="st11" d="M359.7,86.4c0,1.1,0,7.2,0,8.3c1.3,0,5.1,0,6.4,0c0-1.1,0-7.2,0-8.3
			C364.8,86.4,361,86.4,359.7,86.4z"/>
		<rect id="XMLID_375_" x="361" y="89.7" class="st10" width="0.4" height="1.6"/>
		<polygon id="XMLID_374_" class="st29" points="368.6,64.8 357.3,64.8 357.3,57.5 363,53.3 368.6,57.5 		"/>
		<polygon id="XMLID_373_" class="st24" points="368.6,65.9 357.3,65.9 357.3,58.3 363,54.1 368.6,58.3 		"/>
		<g id="XMLID_660_">
			<rect id="XMLID_372_" x="359.7" y="57.7" class="st7" width="6.6" height="6.6"/>
			<path id="XMLID_661_" class="st25" d="M360.5,60.8h2.2v-2.2h-2.2V60.8z M363.3,58.5v2.2h2.2v-2.2H363.3z M360.5,63.6h2.2v-2.2
				h-2.2V63.6z M363.3,63.6h2.2v-2.2h-2.2V63.6z"/>
		</g>
		<rect id="XMLID_365_" x="342.1" y="95.4" class="st7" width="6.6" height="3"/>
		<path id="XMLID_656_" class="st25" d="M345.7,96.2v2.2h2.2v-2.2H345.7z M342.9,98.4h2.2v-2.2h-2.2V98.4z"/>
	</g>
	<g id="XMLID_551_">
		<polygon id="XMLID_360_" class="st30" points="284.9,73.9 266.2,73.9 260.9,81.1 284.9,81.1 		"/>
		<rect id="XMLID_359_" x="262.8" y="81.1" class="st31" width="18.1" height="15.4"/>
		<rect id="XMLID_358_" x="265.3" y="85.5" class="st7" width="9.7" height="6.6"/>
		<path id="XMLID_645_" class="st8" d="M268.3,91.6v-1.7v-0.8h-2.5v2.5H268.3z M265.8,88.5h2.5V86h-2.5V88.5z M274.5,88.5V86H272
			v2.5H274.5z M274.5,91.6v-2.5H272v2.5H274.5z M271.4,91.6v-1.7v-0.8h-2.5v2.5H271.4z M271.4,88.5V86h-2.5v2.5H271.4z"/>
		<rect id="XMLID_347_" x="280.9" y="64.7" class="st31" width="46.1" height="33.7"/>
		<rect id="XMLID_344_" x="291.6" y="83.7" class="st32" width="24.7" height="1.4"/>
		<rect id="XMLID_343_" x="283" y="85.5" class="st7" width="6.6" height="6.6"/>
		<path id="XMLID_637_" class="st8" d="M283.8,88.5h2.2v-2.2h-2.2V88.5z M286.6,86.3v2.2h2.2v-2.2H286.6z M283.8,91.3h2.2v-2.2h-2.2
			V91.3z M286.6,91.3h2.2v-2.2h-2.2V91.3z"/>
		<rect id="XMLID_336_" x="318.2" y="85.5" class="st7" width="6.6" height="6.6"/>
		<path id="XMLID_631_" class="st8" d="M319,88.5h2.2v-2.2H319V88.5z M321.8,86.3v2.2h2.2v-2.2H321.8z M319,91.3h2.2v-2.2H319V91.3z
			 M321.8,91.3h2.2v-2.2h-2.2V91.3z"/>
		<rect id="XMLID_329_" x="292.1" y="85.1" class="st7" width="23.7" height="12.9"/>
		<path id="XMLID_326_" class="st33" d="M292.7,85.8c0,1.1,0,11.1,0,12.3c1.2,0,21.2,0,22.4,0c0-1.1,0-11.1,0-12.3
			C314,85.8,293.9,85.8,292.7,85.8z"/>
		<rect id="XMLID_325_" x="303.7" y="85.8" class="st28" width="0.4" height="12.4"/>
		<rect id="XMLID_324_" x="302.6" y="90.9" class="st10" width="0.3" height="1.3"/>
		<rect id="XMLID_323_" x="305" y="90.9" class="st10" width="0.3" height="1.3"/>
		<rect id="XMLID_322_" x="280.2" y="96.9" class="st30" width="47.5" height="1.5"/>
		<rect id="XMLID_319_" x="290.7" y="96.9" class="st9" width="26.5" height="0.7"/>
		<rect id="XMLID_318_" x="288.4" y="97.7" class="st10" width="31" height="0.7"/>
		<path id="XMLID_317_" class="st34" d="M289.3,98.4c0.1-0.2,0.2-0.5,0.2-0.7c0-1-0.8-1.9-1.9-1.9c-0.2,0-0.3,0-0.5,0.1
			c0-0.1,0-0.1,0-0.2c0-0.7-0.5-1.3-1.2-1.3c-0.5,0-0.9,0.3-1.1,0.7c-0.2-0.1-0.5-0.1-0.7-0.1c-0.5,0-0.9,0.1-1.3,0.3
			c-0.7-0.9-1.9-1.5-3.3-1.5c-1.8,0-3.3,1-3.7,2.3c-0.7,0.3-1.2,0.9-1.2,1.7c0,0.2,0,0.4,0.1,0.5H289.3z"/>
		<path id="XMLID_316_" class="st34" d="M275.3,98.4c0.1-0.2,0.2-0.5,0.2-0.7c0-1-0.8-1.9-1.9-1.9c-0.2,0-0.3,0-0.5,0.1
			c0-0.1,0-0.1,0-0.2c0-0.7-0.5-1.3-1.2-1.3c-0.5,0-0.9,0.3-1.1,0.7c-0.2-0.1-0.5-0.1-0.7-0.1c-0.5,0-0.9,0.1-1.3,0.3
			c-0.7-0.9-1.9-1.5-3.3-1.5c-1.8,0-3.3,1-3.7,2.3c-0.7,0.3-1.2,0.9-1.2,1.7c0,0.2,0,0.4,0.1,0.5H275.3z"/>
		<g id="XMLID_607_">
			<g id="XMLID_610_">
				<polygon id="XMLID_315_" class="st35" points="286.5,98.4 285.8,98.4 285.8,94.7 286.2,94 286.5,94.7 				"/>
				<polygon id="XMLID_311_" class="st35" points="285.2,98.4 284.5,98.4 284.5,94.7 284.8,94 285.2,94.7 				"/>
				<polygon id="XMLID_310_" class="st35" points="283.9,98.4 283.1,98.4 283.1,94.7 283.5,94 283.9,94.7 				"/>
				<polygon id="XMLID_309_" class="st35" points="282.5,98.4 281.8,98.4 281.8,94.7 282.1,94 282.5,94.7 				"/>
				<polygon id="XMLID_308_" class="st35" points="281.2,98.4 280.4,98.4 280.4,94.7 280.8,94 281.2,94.7 				"/>
				<polygon id="XMLID_307_" class="st35" points="279.8,98.4 279.1,98.4 279.1,94.7 279.5,94 279.8,94.7 				"/>
				<polygon id="XMLID_306_" class="st35" points="278.5,98.4 277.7,98.4 277.7,94.7 278.1,94 278.5,94.7 				"/>
				<polygon id="XMLID_305_" class="st35" points="277.1,98.4 276.4,98.4 276.4,94.7 276.8,94 277.1,94.7 				"/>
				<polygon id="XMLID_304_" class="st35" points="275.8,98.4 275.1,98.4 275.1,94.7 275.4,94 275.8,94.7 				"/>
				<polygon id="XMLID_303_" class="st35" points="287.9,98.4 287.2,98.4 287.2,94.7 287.5,94 287.9,94.7 				"/>
			</g>
			<rect id="XMLID_302_" x="274.7" y="97.4" class="st35" width="13.6" height="0.5"/>
			<rect id="XMLID_301_" x="274.7" y="95.5" class="st35" width="13.6" height="0.5"/>
		</g>
		<g id="XMLID_593_">
			<g id="XMLID_596_">
				<polygon id="XMLID_300_" class="st35" points="273.1,98.4 272.4,98.4 272.4,94.7 272.7,94 273.1,94.7 				"/>
				<polygon id="XMLID_299_" class="st35" points="271.7,98.4 271,98.4 271,94.7 271.4,94 271.7,94.7 				"/>
				<polygon id="XMLID_297_" class="st35" points="270.4,98.4 269.7,98.4 269.7,94.7 270,94 270.4,94.7 				"/>
				<polygon id="XMLID_296_" class="st35" points="269.1,98.4 268.3,98.4 268.3,94.7 268.7,94 269.1,94.7 				"/>
				<polygon id="XMLID_295_" class="st35" points="267.7,98.4 267,98.4 267,94.7 267.3,94 267.7,94.7 				"/>
				<polygon id="XMLID_294_" class="st35" points="266.4,98.4 265.6,98.4 265.6,94.7 266,94 266.4,94.7 				"/>
				<polygon id="XMLID_293_" class="st35" points="265,98.4 264.3,98.4 264.3,94.7 264.7,94 265,94.7 				"/>
				<polygon id="XMLID_291_" class="st35" points="263.7,98.4 262.9,98.4 262.9,94.7 263.3,94 263.7,94.7 				"/>
				<polygon id="XMLID_290_" class="st35" points="262.3,98.4 261.6,98.4 261.6,94.7 262,94 262.3,94.7 				"/>
				<polygon id="XMLID_289_" class="st35" points="274.4,98.4 273.7,98.4 273.7,94.7 274.1,94 274.4,94.7 				"/>
			</g>
			<rect id="XMLID_288_" x="261.2" y="97.4" class="st35" width="13.6" height="0.5"/>
			<rect id="XMLID_287_" x="261.2" y="95.5" class="st35" width="13.6" height="0.5"/>
		</g>
		<polygon id="XMLID_285_" class="st30" points="329,66.1 278.8,66.1 284.5,54.9 323.3,54.9 		"/>
		<path id="XMLID_284_" class="st7" d="M321.5,67.9c-1.8,0-3.3,1.5-3.3,3.3v5.8h6.6v-5.8C324.8,69.4,323.3,67.9,321.5,67.9z"/>
		<path id="XMLID_586_" class="st8" d="M319,73.7h2.2v-2.2H319V73.7z M321.8,71.4v2.2h2.2v-2.2H321.8z M319,76.5h2.2v-2.2H319V76.5z
			 M321.8,76.5h2.2v-2.2h-2.2V76.5z"/>
		<path id="XMLID_278_" class="st8" d="M318.9,70.9h2.3v-2.2C320,68.7,319,69.7,318.9,70.9z"/>
		<path id="XMLID_277_" class="st8" d="M321.8,68.7v2.2h2.3C324,69.7,323,68.7,321.8,68.7z"/>
		<path id="XMLID_276_" class="st7" d="M312.7,67.9c-1.8,0-3.3,1.5-3.3,3.3v5.8h6.6v-5.8C316,69.4,314.5,67.9,312.7,67.9z"/>
		<path id="XMLID_578_" class="st8" d="M310.2,73.7h2.2v-2.2h-2.2V73.7z M313,71.4v2.2h2.2v-2.2H313z M310.2,76.5h2.2v-2.2h-2.2
			V76.5z M313,76.5h2.2v-2.2H313V76.5z"/>
		<path id="XMLID_270_" class="st8" d="M310.1,70.9h2.3v-2.2C311.2,68.7,310.2,69.7,310.1,70.9z"/>
		<path id="XMLID_269_" class="st8" d="M313,68.7v2.2h2.3C315.2,69.7,314.2,68.7,313,68.7z"/>
		<path id="XMLID_267_" class="st7" d="M303.9,67.9c-1.8,0-3.3,1.5-3.3,3.3v5.8h6.6v-5.8C307.2,69.4,305.8,67.9,303.9,67.9z"/>
		<path id="XMLID_570_" class="st8" d="M301.4,73.7h2.2v-2.2h-2.2V73.7z M304.2,71.4v2.2h2.2v-2.2H304.2z M301.4,76.5h2.2v-2.2h-2.2
			V76.5z M304.2,76.5h2.2v-2.2h-2.2V76.5z"/>
		<path id="XMLID_262_" class="st8" d="M301.3,70.9h2.3v-2.2C302.4,68.7,301.4,69.7,301.3,70.9z"/>
		<path id="XMLID_261_" class="st8" d="M304.2,68.7v2.2h2.3C306.4,69.7,305.4,68.7,304.2,68.7z"/>
		<path id="XMLID_259_" class="st7" d="M295.1,67.9c-1.8,0-3.3,1.5-3.3,3.3v5.8h6.6v-5.8C298.4,69.4,297,67.9,295.1,67.9z"/>
		<path id="XMLID_562_" class="st8" d="M292.6,73.7h2.2v-2.2h-2.2V73.7z M295.4,71.4v2.2h2.2v-2.2H295.4z M292.6,76.5h2.2v-2.2h-2.2
			V76.5z M295.4,76.5h2.2v-2.2h-2.2V76.5z"/>
		<path id="XMLID_253_" class="st8" d="M292.5,70.9h2.3v-2.2C293.6,68.7,292.6,69.7,292.5,70.9z"/>
		<path id="XMLID_252_" class="st8" d="M295.4,68.7v2.2h2.3C297.6,69.7,296.6,68.7,295.4,68.7z"/>
		<path id="XMLID_251_" class="st7" d="M286.3,67.9c-1.8,0-3.3,1.5-3.3,3.3v5.8h6.6v-5.8C289.7,69.4,288.2,67.9,286.3,67.9z"/>
		<path id="XMLID_554_" class="st8" d="M283.8,73.7h2.2v-2.2h-2.2V73.7z M286.6,71.4v2.2h2.2v-2.2H286.6z M283.8,76.5h2.2v-2.2h-2.2
			V76.5z M286.6,76.5h2.2v-2.2h-2.2V76.5z"/>
		<path id="XMLID_244_" class="st8" d="M283.7,70.9h2.3v-2.2C284.8,68.7,283.9,69.7,283.7,70.9z"/>
		<path id="XMLID_242_" class="st8" d="M286.6,68.7v2.2h2.3C288.8,69.7,287.8,68.7,286.6,68.7z"/>
	</g>
</g>
</svg>
